<svg enable-background="new 0 0 64 64" height="512" viewBox="0 0 64 64" width="512" xmlns="http://www.w3.org/2000/svg"><path d="m27.103 39.282 2.342-.782 9.055-1 2 .537v-2.537l-11.055.827-1.945 1.293z" fill="#96bef0"/><path d="m45.488 39.623c-1.903-.705-4.203-1.404-6.988-2.123v-7.76l-9.055 4.76v4c-3.01.752-5.26 1.568-6.945 2.481v12.481h22.988z" fill="#ffb4be"/><path d="m33.5 47c-.128 0-.256-.049-.354-.147-.194-.195-.194-.511 0-.706.118-.118 1.181-1.147 2.354-1.147.77 0 3.783-.711 4.879-.985.265-.07.539.096.606.364s-.096.539-.364.606c-.415.104-4.089 1.015-5.121 1.015-.645 0-1.408.617-1.647.854-.098.097-.225.146-.353.146z" fill="#f0a0aa"/><path d="m29.5 47c-.128 0-.255-.048-.353-.146-.239-.237-1.002-.854-1.647-.854-1.086 0-3.008-.945-3.224-1.053-.247-.124-.347-.424-.224-.671s.423-.347.671-.224c.528.264 2.055.948 2.777.948 1.173 0 2.236 1.029 2.354 1.146.195.195.195.511 0 .706-.098.099-.226.148-.354.148z" fill="#f0a0aa"/><path d="m24.5 49.5s2 2 6 2 8-1 8-1v12h-14z" fill="#968cd2"/><path d="m23.335 40.561c-5.865 2.776-5.835 6.459-5.835 12.121v9.818h12.344l-1.344-3z" fill="#aad2ff"/><path d="m23 40.733c-5.514 2.756-5.5 6.402-5.5 11.949v2c0-5.547-.014-9.193 5.5-11.949z" fill="#bee6ff"/><g fill="#96bef0"><path d="m17.5 56.526c1.318-1.501 3.629-3.774 5-3.044 1.739.925 4.985 4.408 5.805 5.304l-.19-.696c-.627-1.553-1.852-4.932-2.372-8.697l-2.409-8.833c-.182.086-.341.176-.512.263-.88 1.314-1.653 2.778-2.323 4.205-1.116 2.377-2.231 6.058-3 8.849.001.879.001 1.777.001 2.649z"/><path d="m17.5 60.5v2h12.344l-.896-2z"/><path d="m21.5 63c-.276 0-.5-.224-.5-.5 0-.904-.49-2.129-.964-3.314-.51-1.273-1.036-2.59-1.036-3.686 0-2.072 1.953-6.978 2.036-7.186.103-.257.396-.381.65-.279.256.103.381.394.279.65-.02.05-1.965 4.934-1.965 6.815 0 .904.49 2.129.964 3.314.51 1.273 1.036 2.59 1.036 3.686 0 .276-.224.5-.5.5z"/></g><path d="m42.445 38.604-10.945 20.896-1.656 3h24.656s0-3 0-11c0-6.193-.82-9.462-12.055-12.896z" fill="#aad2ff"/><path d="m42.445 38.604-.445.851v2l.445-.85c11.235 3.433 12.055 6.702 12.055 12.895 0-.633 0-1.29 0-2 0-6.193-.82-9.462-12.055-12.896z" fill="#bee6ff"/><path d="m29.844 62.5h24.656s0-.611 0-2h-23.552z" fill="#96bef0"/><path d="m45.5 63c-.276 0-.5-.224-.5-.5v-13c0-.276.224-.5.5-.5s.5.224.5.5v13c0 .276-.224.5-.5.5z" fill="#96bef0"/><path d="m54.5 63h-37c-.276 0-.5-.224-.5-.5v-9.817c0-5.42 0-9.265 5.209-12.113.242-.133.545-.044.678.199.133.242.044.546-.199.678-4.688 2.564-4.688 5.791-4.688 11.137v9.416h36v-10.5c0-5.375-.447-8.57-9.627-11.745-.261-.09-.399-.375-.309-.636.09-.26.375-.399.636-.309 9.284 3.211 10.3 6.485 10.3 12.69v11c0 .276-.224.5-.5.5zm-36.5-.5h.01z" fill="#785ae6"/><path d="m29.444 36.827c-.276 0-.5-.224-.5-.5v-1.827c0-.276.224-.5.5-.5s.5.224.5.5v1.827c0 .276-.223.5-.5.5z" fill="#785ae6"/><path d="m40.5 35.5s4 2.208 6 8.833c1.18 3.91 1.664 7.435 1.862 9.668.071.805-.801 1.38-1.49.958-1.125-.689-2.874-1.24-5.373-.689-5 1.104-10 5.729-10 5.729s5-7.937 7-12.354c2.001-4.416 2.001-12.145 2.001-12.145z" fill="#96bef0"/><path d="m40.5 35.5s4 2 6 8 2 11 2 11-2-3-7-2-10 7-10 7 5-9 7-13 2-11 2-11z" fill="#aad2ff"/><path d="m46.5 43.5c-1.571-4.714-4.869-7.254-6-8l-.075 1.986c1.131.746 4.504 3.301 6.075 8.014 1.197 3.591 1.675 6.813 1.868 8.831.086.102.132.169.132.169s0-5-2-11z" fill="#bee6ff"/><path d="m48.5 55c-.164 0-.322-.081-.416-.223-.074-.108-1.906-2.703-6.486-1.787-1.084.217-2.266.706-3.513 1.454-.238.142-.544.065-.686-.171s-.065-.544.171-.686c1.345-.807 2.634-1.338 3.831-1.577 3.346-.669 5.436.35 6.539 1.217-.132-1.844-.555-5.488-1.915-9.568-1.904-5.71-5.712-7.692-5.75-7.711-.246-.125-.345-.425-.222-.671.125-.246.425-.344.67-.223.171.085 4.208 2.163 6.25 8.289 2.004 6.007 2.027 10.949 2.027 11.157 0 .22-.144.415-.355.479-.048.014-.097.021-.145.021z" fill="#785ae6"/><path d="m29.445 36.331s-3.945 3.169-3.945 9.169 3 14 3 14-4-7-6-8-6 4-6 4 2-7 4-11 4.889-8.337 8.945-8.169z" fill="#aad2ff"/><path d="m20.5 46.5c1.665-3.331 3.95-6.886 7.009-7.888.974-1.505 1.936-2.281 1.936-2.281-4.056-.168-6.945 4.169-8.945 8.169s-4 11-4 11 .376-.468.951-1.087c.769-2.378 1.908-5.632 3.049-7.913z" fill="#bee6ff"/><path d="m16.5 56c-.078 0-.157-.018-.229-.056-.211-.109-.317-.353-.251-.582.083-.288 2.036-7.091 4.034-11.086.696-1.392 1.366-2.558 2.046-3.566.154-.229.465-.288.694-.135.229.155.289.465.135.694-.657.972-1.305 2.102-1.981 3.454-1.273 2.546-2.561 6.371-3.31 8.751 1.46-1.475 3.588-3.17 5.086-2.422.495.248 1.084.781 1.8 1.629.178.211.151.526-.06.705-.211.178-.527.151-.705-.06-.77-.912-1.231-1.253-1.483-1.379-1.128-.567-3.829 1.921-5.386 3.865-.097.122-.242.188-.39.188z" fill="#785ae6"/><path d="m22.513 41.49c-.096 0-.193-.028-.279-.085-.229-.155-.289-.465-.135-.694 2.26-3.346 4.732-4.986 7.366-4.878.276.011.49.245.479.521s-.248.5-.521.479c-2.289-.093-4.415 1.356-6.495 4.438-.096.142-.254.219-.415.219z" fill="#785ae6"/><path d="m15.5 32.5s3 2 3-3 0-6 0-9 0-15 13-15 16 7 16 14-.028 17.308-9 15.578c-3-.578-2-.945 0-1.762v-3.816h-11.75s.75 6-5.25 6-6-3-6-3z" fill="#cb783f"/><path d="m38.5 33.078v.238c-2 .817-3 1.183 0 1.762 8.972 1.73 9-8.578 9-15.578 0-.119-.003-.237-.005-.356-.051 6.851-.703 15.533-8.995 13.934z" fill="#be6432"/><path d="m25.732 31.681c-.756 1.016-2.041 1.819-4.232 1.819-1.948 0-3.256-.318-4.145-.745-.847.41-1.855-.255-1.855-.255s0 3 6 3c2.191 0 3.476-.803 4.232-1.819z" fill="#be6432"/><path d="m29.445 32.5v11l1.77 1 1.23 1 6.055-4v-11.76z" fill="#ffb4be"/><path d="m31.5 7.5c12.78 0 15.893 6.765 15.995 13.644.004-.562.005-1.113.005-1.644 0-7-3-14-16-14s-13 12-13 15v2c0-3 0-15 13-15z" fill="#dc8c50"/><path d="m21.5 36c-6.426 0-6.5-3.357-6.5-3.5 0-.185.102-.354.264-.441s.36-.077.513.025c.006.005.826.521 1.393.212.535-.289.83-1.282.83-2.796v-9c0-12.811 7.341-15.5 13.5-15.5 10.949 0 16.5 4.878 16.5 14.5 0 5.06 0 11.989-3.531 14.904-1.52 1.255-3.559 1.649-6.064 1.165-.271-.052-.449-.314-.396-.585.052-.271.314-.448.585-.396 2.226.428 3.94.116 5.238-.955 3.168-2.615 3.168-9.272 3.168-14.133 0-9.084-5.07-13.5-15.5-13.5-8.294 0-12.5 4.878-12.5 14.5v9c0 1.958-.458 3.196-1.361 3.68-.437.232-.896.248-1.293.177.524.724 1.841 1.643 5.154 1.643 1.612 0 2.837-.462 3.641-1.373 1.404-1.59 1.116-4.041 1.113-4.065-.018-.142.026-.285.121-.393.095-.107.231-.169.375-.169h11.75c.276 0 .5.224.5.5s-.224.5-.5.5h-11.22c.016.939-.126 2.858-1.389 4.289-1.003 1.135-2.48 1.711-4.391 1.711z" fill="#785ae6"/><path d="m21.5 13.5v14c0 3.866 3.134 7 7 7h5c3.314 0 6-2.686 6-6h2c1.657 0 3-1.343 3-3v-1c0-1.657-1.343-3-3-3h-2v-8z" fill="#ffc8d2"/><path d="m21.5 20.513s2-1.013 4-4.013c0 0 1 1 0 3s5 1 7-1 2-3 2-3 2.02 4.04 2.745 8.804c.15.984 1.5 1.162 1.899.251.699-1.595 1.356-3.715 1.356-6.055 0-2-1-6-1-6l-18 2z" fill="#ffb4be"/><path d="m21.5 18.513s2-1.013 4-4.013c0 0 1 1 0 3s5 1 7-1 2-3 2-3 2.02 4.04 2.745 8.804c.15.984 1.5 1.162 1.899.251.699-1.595 1.356-3.715 1.356-6.055 0-2-1-4-1-4h-18z" fill="#cb783f"/><g fill="#785ae6"><path d="m41.5 29h-2c-.276 0-.5-.224-.5-.5s.224-.5.5-.5h2c1.378 0 2.5-1.122 2.5-2.5v-1c0-1.378-1.122-2.5-2.5-2.5h-1.811c-.276 0-.5-.224-.5-.5s.224-.5.5-.5h1.811c1.93 0 3.5 1.57 3.5 3.5v1c0 1.93-1.57 3.5-3.5 3.5z"/><path d="m33.5 35h-5c-4.136 0-7.5-3.364-7.5-7.5v-10c0-.276.224-.5.5-.5s.5.224.5.5v10c0 3.584 2.916 6.5 6.5 6.5h5c.276 0 .5.224.5.5s-.224.5-.5.5z"/><path d="m31.5 26c-.276 0-.5-.224-.5-.5v-3c0-.276.224-.5.5-.5s.5.224.5.5v3c0 .276-.224.5-.5.5z"/><path d="m23.5 26c-.276 0-.5-.224-.5-.5v-3c0-.276.224-.5.5-.5s.5.224.5.5v3c0 .276-.224.5-.5.5z"/><path d="m26.5 28c-1.739 0-2.892-1.292-2.892-2.146 0-.243.088-.461.249-.616.112-.109.315-.238.643-.238.289 0 1.034-1.186 1.526-2.658.087-.262.371-.404.632-.316.262.087.403.37.316.632-.321.964-1.173 3.155-2.327 3.331.042.094.123.223.258.363.188.195.719.648 1.595.648.276 0 .5.224.5.5s-.224.5-.5.5z"/><path d="m28.5 31c-2.472 0-2.5-1.439-2.5-1.5 0-.276.224-.5.5-.5.268 0 .487.211.5.476.028.184.376.524 1.5.524 2.23 0 2.506-.566 2.508-.572 0-.276.22-.464.496-.464s.496.26.496.536c0 .352-.252 1.5-3.5 1.5zm-1.5-1.5h.01z"/><path d="m31.5 24.041c-.125 0-.25-.046-.346-.14-.199-.191-.206-.508-.014-.707l1-1.041c.192-.2.508-.206.707-.014.199.191.206.508.014.707l-1 1.041c-.099.103-.23.154-.361.154z"/><path d="m23.5 24.041c-.131 0-.262-.051-.36-.154l-1-1.041c-.191-.199-.185-.516.014-.707.198-.192.516-.186.707.014l1 1.041c.191.199.185.516-.014.707-.097.094-.222.14-.347.14z"/><path d="m34.5 22c-.209 0-.404-.132-.474-.342-.35-1.05-1.013-1.651-1.972-1.788-.738-.106-1.39.102-1.396.104-.265.087-.545-.054-.632-.316s.054-.545.316-.632c.035-.013.873-.286 1.854-.146.938.134 2.181.67 2.778 2.462.087.262-.054.545-.316.632-.053.018-.106.026-.158.026z"/><path d="m21.5 21.326c-.087 0-.176-.023-.256-.071-.237-.142-.314-.449-.173-.686 1.163-1.947 3.418-1.58 3.515-1.562.272.047.454.307.407.579-.047.271-.301.452-.577.407-.079-.012-1.683-.257-2.486 1.089-.095.157-.26.244-.43.244z"/><path d="m38.238 23.649c-.067 0-.134-.004-.202-.013-.667-.088-1.184-.593-1.285-1.257-.042-.273.146-.528.419-.569.272-.042.528.146.569.419.052.34.34.404.428.416.085.012.381.025.52-.291.871-1.988 1.313-3.958 1.313-5.854 0-1.854-.938-3.758-.947-3.777-.123-.247-.023-.547.224-.67.247-.122.548-.023.67.224.043.085 1.053 2.129 1.053 4.223 0 2.036-.47 4.14-1.398 6.255-.242.553-.774.894-1.364.894z"/><path d="m29.444 36.827c-.276 0-.5-.224-.5-.5v-1.827c0-.276.224-.5.5-.5s.5.224.5.5v1.827c0 .276-.223.5-.5.5z"/></g></svg>